<?xml version="1.0" encoding="UTF-8" standalone="no"?>
<svg
   xmlns:dc="http://purl.org/dc/elements/1.1/"
   xmlns:cc="http://creativecommons.org/ns#"
   xmlns:rdf="http://www.w3.org/1999/02/22-rdf-syntax-ns#"
   xmlns:svg="http://www.w3.org/2000/svg"
   xmlns="http://www.w3.org/2000/svg"
   xmlns:sodipodi="http://sodipodi.sourceforge.net/DTD/sodipodi-0.dtd"
   xmlns:inkscape="http://www.inkscape.org/namespaces/inkscape"
   width="188.33902mm"
   height="35.562683mm"
   viewBox="0 0 188.33902 35.562683"
   version="1.1"
   id="svg8"
   inkscape:version="1.0.2 (e86c870879, 2021-01-15, custom)"
   sodipodi:docname="la logo.svg">
  <defs
     id="defs2" />
  <sodipodi:namedview
     id="base"
     pagecolor="#ffffff"
     bordercolor="#666666"
     borderopacity="1.0"
     inkscape:pageopacity="0.0"
     inkscape:pageshadow="2"
     inkscape:zoom="0.7"
     inkscape:cx="-392.04423"
     inkscape:cy="-256.69823"
     inkscape:document-units="mm"
     inkscape:current-layer="layer1"
     inkscape:document-rotation="0"
     showgrid="false"
     inkscape:window-width="2560"
     inkscape:window-height="1366"
     inkscape:window-x="0"
     inkscape:window-y="38"
     inkscape:window-maximized="1"
     fit-margin-top="0"
     fit-margin-left="0"
     fit-margin-right="0"
     fit-margin-bottom="0" />
  <metadata
     id="metadata5">
    <rdf:RDF>
      <cc:Work
         rdf:about="">
        <dc:format>image/svg+xml</dc:format>
        <dc:type
           rdf:resource="http://purl.org/dc/dcmitype/StillImage" />
        <dc:title></dc:title>
      </cc:Work>
    </rdf:RDF>
  </metadata>
  <g
     inkscape:label="Layer 1"
     inkscape:groupmode="layer"
     id="layer1"
     transform="translate(-5.2915433,-80.158221)">
    <path
       id="path26"
       style="fill:#000000;stroke-width:0.32"
       d="m 121.00781,316.56445 -3.28125,4.875 c -3.04254,4.52045 -26.551615,39.36876 -26.640622,39.49024 -0.02188,0.0299 -1.810706,-1.01445 -3.97461,-2.32031 -2.163897,-1.30588 -4.070697,-2.375 -4.238281,-2.375 -0.185386,-10e-6 -0.304688,3.38675 -0.304688,8.65039 v 8.65039 l -5.324218,7.91015 c -2.928639,4.35009 -5.373802,7.96719 -5.433594,8.03711 -0.05978,0.0698 -0.702051,-0.2652 -1.425781,-0.74414 -0.723727,-0.47883 -1.358365,-0.82465 -1.41211,-0.76758 -0.05378,0.0572 -0.204686,3.18115 -0.333984,6.94336 l -0.234375,6.8418 6.164062,-3.14648 c 6.010198,-3.06713 6.146597,-3.15874 5.419922,-3.64063 -2.149111,-1.42518 -2.406466,-0.62736 3.171875,-9.77344 4.827372,-7.91485 5.151821,-8.36403 6.671875,-9.19531 l 1.597657,-0.87305 2.375,2.47461 c 1.306204,1.36061 4.703795,4.89904 7.550782,7.86328 l 5.17578,5.38868 9.99609,-7.67774 9.9961,-7.67578 1.62304,1.19922 c 17.80025,13.15777 37.1662,27.64766 37.2461,27.86914 0.0569,0.15779 -0.28816,0.79978 -0.76563,1.42578 -0.47746,0.626 -0.81075,1.19249 -0.74218,1.25977 0.0685,0.0672 2.57245,0.35281 5.56445,0.63476 2.992,0.28184 6.12299,0.59642 6.95898,0.69922 l 1.51953,0.1875 0.004,1.33008 c 0.007,2.967 2.45389,6.15169 5.4375,7.07812 1.90325,0.58976 2.75217,0.58837 4.75977,-0.008 4.38807,-1.30314 6.73257,-6.28929 4.99414,-10.62305 -1.06969,-2.66664 -4.38447,-4.8789 -7.3125,-4.8789 -1.05455,0 -1.1615,-0.0809 -1.16407,-0.87891 -0.007,-2.02291 -0.65066,-13.00008 -0.76953,-13.11914 -0.0711,-0.0712 -0.72158,0.26325 -1.44531,0.74219 -0.72373,0.47902 -1.36799,0.81406 -1.43164,0.74414 -0.0637,-0.0697 -11.09246,-16.39291 -24.50781,-36.27344 L 132.10165,316.742 c -2.92934,2.25702 -8.49989,2.45799 -11.09375,-0.17774 z m 2.96863,1.64667 c 2.21669,0.41817 3.76981,0.2412 5.06686,-0.0269 l 22.47232,36.97979 c 12.28995,20.22399 22.57549,37.06627 22.81836,37.45117 0.41217,0.65326 0.35543,0.75731 -0.86132,1.5625 -0.71698,0.47449 -1.30046,0.95013 -1.29688,1.0586 0.004,0.10862 2.66751,1.55902 5.91992,3.22265 3.25241,1.66364 5.91275,3.1048 5.91211,3.20118 -6.6e-4,0.0963 -0.64945,0.44178 -1.4414,0.76757 -1.6562,0.68111 -3.85797,2.99995 -4.16211,4.38477 -0.11291,0.51417 -0.31788,1.00518 -0.45508,1.08984 -0.1372,0.0848 -1.47908,-2.53737 -2.98242,-5.82617 -1.50335,-3.28879 -2.85597,-6.01878 -3.00586,-6.0664 -0.14992,-0.0476 -0.59848,0.41565 -0.9961,1.02929 -0.39762,0.61365 -0.8617,1.11524 -1.03125,1.11524 -0.16954,0 -10.0422,-6.63584 -21.9414,-14.7461 -19.36558,-13.19923 -21.69204,-14.69765 -22.16992,-14.28906 -0.91969,0.78632 -17.79161,14.77199 -18.3711,15.22852 -0.68627,0.54062 -0.85166,0.40672 -7.693358,-6.21289 l -5.052734,-4.88672 4.171875,-2.29883 c 2.294227,-1.26422 4.171877,-2.41335 4.171877,-2.55274 0,-0.1394 -1.51868,-1.15133 -3.375002,-2.25 -1.892886,-1.1203 -3.334617,-2.17882 -3.28125,-2.4082 0.05232,-0.22494 6.278762,-10.55197 13.835942,-22.94922 z m 410.75208,1.54279 v 25.28125 25.27929 h 4.93164 4.93164 l 0.13867,-10.95898 c 0.12026,-9.50061 0.21815,-11.21393 0.73047,-12.85938 1.37745,-4.42412 5.76412,-6.51256 9.6875,-4.61328 1.16405,0.56352 1.57106,1.01179 2.25976,2.48047 l 0.83985,1.79102 0.10742,12.08008 0.10742,12.08007 h 4.95117 4.95117 l -0.11132,-13.83984 c -0.11055,-13.64629 -0.12352,-13.86903 -0.875,-15.91992 -0.57294,-1.56353 -1.20578,-2.52318 -2.54883,-3.86719 -2.2328,-2.2344 -4.4851,-3.15025 -8.3711,-3.40234 -4.62893,-0.30031 -8.09375,0.92897 -10.6582,3.78125 l -1.34375,1.49414 0.13672,-9.40235 0.13477,-9.40429 h -5 z m 119.10156,0.043 c -1.06609,0.0182 -1.57539,0.17171 -2.20508,0.5664 -1.57739,0.98875 -2.16602,2.12865 -2.16602,4.19141 0,2.06817 0.59532,3.2161 2.16602,4.17383 0.73625,0.44893 1.60595,0.62448 3.10352,0.625 3.67377,0.001 5.51473,-1.60752 5.48828,-4.79883 -0.0254,-3.28648 -1.42952,-4.58819 -5.10938,-4.73438 -0.50458,-0.02 -0.92198,-0.0295 -1.27734,-0.0234 z m -433.3418,2.83789 v 23.83984 23.83984 h 14.7207 14.71875 v -4.16015 -4.16016 h -9.59961 -9.5996 V 342.31448 322.6348 h -5.11914 z m 207.16992,0 -6.83203,19.43945 c -3.75779,10.692 -7.52888,21.42351 -8.38086,23.84766 l -1.54883,4.4082 5.49024,-0.0879 5.48828,-0.0879 0.56641,-1.75977 c 0.31064,-0.968 1.08397,-3.45457 1.71875,-5.52539 l 1.15429,-3.76562 8.66211,0.0859 8.66406,0.0859 1.65626,5.43945 1.65429,5.43946 5.50586,0.0879 5.50586,0.0879 -1.43945,-4.08789 c -0.79159,-2.24815 -4.56956,-12.97777 -8.39649,-23.84375 l -6.95898,-19.75586 -6.25391,-0.004 z m -340.140622,0.0527 c -4.539523,-0.28809 -8.857312,3.36886 -8.388672,8.53711 0.205629,2.2677 0.89065,3.68104 2.519532,5.19727 l 1.234374,1.14843 -5.484374,3.01172 c -7.121904,3.91007 -6.700375,3.54791 -5.19336,4.45508 0.68372,0.41157 1.281637,0.77407 1.328125,0.80469 0.04647,0.0306 -9.684147,17.09477 -21.623047,37.92187 l -21.707031,37.86719 -0.150242,0.25105 c 1.639632,0.51228 1.754803,0.5338 2.970555,1.65711 L 54.609375,389.64648 C 66.482311,371.00547 77.052933,354.41551 78.099609,352.7793 l 1.904297,-2.97461 1.441406,0.8457 1.44336,0.8457 v -4.94336 c 0,-2.7189 0.09062,-5.80938 0.201172,-6.86718 l 0.201172,-1.92383 1.449218,0.43555 c 1.858239,0.55926 2.452508,0.54999 4.570313,-0.0781 3.52797,-1.04636 6.138988,-5.04867 5.570312,-8.53711 -0.300396,-1.84272 -1.635439,-4.22293 -2.917968,-5.20117 -1.393509,-1.06288 -2.932139,-1.59733 -4.445313,-1.69336 z m 593.771482,3.44531 -3.26953,0.0918 -3.26953,0.0898 -1.41406,3.76563 -1.41211,3.76367 -2.67774,1.61719 -2.67773,1.61718 v 2.21876 2.21874 h 2.21094 2.20898 l 0.13281,10.31836 c 0.12114,9.38538 0.19493,10.5023 0.80079,12.33008 1.14999,3.46947 3.08138,5.34644 6.48632,6.29883 2.5126,0.7028 8.388,0.46813 11.2793,-0.44922 l 2.16016,-0.68359 v -3.70508 -3.70508 l -0.88086,0.19531 c -5.47484,1.21197 -7.93286,0.97922 -9.05274,-0.85742 -0.5805,-0.95183 -0.625,-1.67002 -0.625,-10.375 v -9.35156 l 5.03906,-0.0879 5.04102,-0.0879 v -3.67969 -3.68164 l -5.04102,-0.0879 -5.03906,-0.0879 v -3.84375 z m -300.16015,0.0215 -3.28125,0.002 h -3.2793 l -1.39063,3.80664 -1.39257,3.80664 -2.76758,1.72461 -2.76953,1.72266 v 2.06836 2.07031 l 2.32031,0.0937 2.32031,0.0937 0.006,9.02539 c 0.003,4.96429 0.1508,10.01941 0.32617,11.23242 0.7033,4.86552 2.81761,7.4881 7.02735,8.7168 2.20524,0.64366 8.56842,0.36081 11.28125,-0.50196 l 2.1582,-0.6875 v -3.66601 c 0,-2.01693 -0.10638,-3.66797 -0.23828,-3.66797 -0.1321,0 -1.24853,0.21367 -2.48047,0.47461 -2.8662,0.60729 -4.75169,0.6099 -5.91602,0.008 -1.9203,-0.99362 -1.92382,-1.00686 -1.92382,-11.42578 v -9.51953 l 5.03906,-0.0879 5.04101,-0.0879 v -3.68164 -3.67969 l -5.04101,-0.0879 -5.03906,-0.0879 v -3.83203 z m 129.32617,0 -0.66406,1.75976 c -0.36465,0.968 -0.9704,2.58956 -1.34571,3.60156 -0.88448,2.38436 -0.85914,2.35742 -3.82422,4.09571 l -2.5332,1.48437 v 2.20899 2.21093 h 2.40039 2.40039 v 10.01172 c 0,7.95737 0.10008,10.40421 0.49024,11.91993 0.98407,3.82295 3.10428,6.08948 6.54882,7 3.32153,0.878 9.31295,0.48872 12.56055,-0.81641 l 0.88086,-0.35352 v -3.64062 c 0,-2.00264 -0.0359,-3.64258 -0.0801,-3.64258 -0.044,0 -1.08837,0.21367 -2.32031,0.47461 -2.8995,0.61407 -4.76559,0.60793 -6.08789,-0.0195 -1.96271,-0.93139 -2.07227,-1.55806 -2.07227,-11.7832 v -9.1504 h 5.11914 5.1211 v -3.84179 -3.83985 h -5.1211 -5.11914 v -3.83984 -3.83984 h -3.17773 z m -423.742189,0.64062 c 0.730337,0 1.732989,0.20859 2.228515,0.46485 0.974824,0.50409 1.947233,2.21693 1.945313,3.42382 -0.0017,1.08569 -1.098295,2.72057 -2.208985,3.29493 -2.731064,1.41228 -5.46875,-0.42978 -5.46875,-3.67969 0,-1.08349 0.200144,-1.52827 1.087891,-2.41602 0.887747,-0.88776 1.332531,-1.08789 2.416016,-1.08789 z m 347.208989,4.02149 c 0.11015,-0.038 0.24398,0.22232 0.39648,0.77734 0.16932,0.616 1.51787,5.03648 2.99805,9.82227 1.48017,4.78578 2.6914,8.78263 2.6914,8.88086 0,0.0982 -2.72495,0.17773 -6.05664,0.17773 h -6.05859 l 0.26367,-0.88086 c 2.10894,-7.05385 5.51742,-18.26922 5.66406,-18.63867 0.0314,-0.0793 0.0648,-0.12599 0.10157,-0.13867 z m 207.04101,2.38476 c -1.76917,0.005 -4.26376,0.37777 -5.43359,0.89063 -2.11707,0.92813 -3.98267,2.40149 -5.33789,4.21679 -0.65919,0.88298 -1.29003,1.60547 -1.40039,1.60547 -0.11044,0 -0.37801,-0.82784 -0.59571,-1.83984 -0.21785,-1.012 -0.53613,-2.37906 -0.70508,-3.03906 l -0.30664,-1.20118 h -3.82812 -3.82617 v 18.24024 18.24023 h 5.11914 5.12109 V 359.6582 349 l 0.83203,-1.67188 c 0.91824,-1.84268 2.07263,-2.86419 4.46485,-3.95507 1.2771,-0.58238 2.14882,-0.72295 4.51953,-0.72071 l 2.9375,0.004 0.16601,-0.9707 c 0.0914,-0.53383 0.26376,-2.58358 0.38282,-4.55469 l 0.21679,-3.58398 -0.875,-0.21876 c -0.35264,-0.0885 -0.86145,-0.12859 -1.45117,-0.12695 z m -329.97656,0.0332 c -4.31163,-0.004 -7.79566,0.74469 -11.89063,2.5 l -1.46679,0.6289 1.54492,3.22461 c 0.84992,1.77373 1.61348,3.29122 1.69531,3.37305 0.0818,0.0818 1.2891,-0.26689 2.68359,-0.77539 4.58433,-1.67168 8.80059,-1.97653 11.07422,-0.80078 1.19693,0.61895 2.16438,2.68604 2.17383,4.64257 l 0.008,1.47266 -4.88086,0.22461 c -6.14131,0.28225 -9.04644,0.849 -12.07031,2.35742 -3.9718,1.98128 -5.62871,4.85062 -5.58789,9.67188 0.0442,5.21923 2.46694,8.93292 6.9043,10.58007 1.42817,0.53006 2.3021,0.6161 5.23437,0.51368 4.62967,-0.16174 6.5046,-0.86345 9.31055,-3.48828 1.13693,-1.06355 2.11443,-1.8772 2.17187,-1.8086 0.0575,0.0686 0.49732,1.16736 0.97852,2.44336 l 0.875,2.32031 h 3.49219 3.49219 V 356.9082 c 0,-12.56217 -0.0406,-13.53786 -0.64844,-15.50586 -0.82357,-2.66639 -2.26665,-4.56535 -4.48438,-5.89843 -2.54648,-1.5307 -4.48624,-2.02594 -8.70703,-2.22266 -0.65395,-0.0305 -1.2864,-0.0463 -1.90234,-0.0469 z m -37.625,0.01 c -3.59835,-0.12053 -7.34721,0.62188 -10.01563,2.07422 -3.44526,1.87515 -6.2767,5.87916 -7.54687,10.67578 -0.68734,2.59564 -0.77237,9.29136 -0.15039,11.83984 0.73145,2.99698 2.48087,6.26799 4.35547,8.14258 2.01515,2.01516 5.43861,3.82201 8.48437,4.47852 4.48173,0.96604 11.5493,0.45709 16,-1.15235 l 2.08008,-0.75195 0.0898,-3.95703 c 0.0841,-3.69049 0.0514,-3.93925 -0.48047,-3.71289 -4.20949,1.79158 -10.48961,2.96349 -13.51953,2.52148 -3.84837,-0.56141 -6.72978,-3.4699 -7.25781,-7.32226 l -0.19922,-1.44531 h 11.72461 11.72266 l -0.004,-3.91993 c -0.003,-2.32095 -0.19887,-4.73771 -0.47851,-5.92382 -1.38559,-5.87678 -5.46611,-9.89579 -11.30274,-11.13282 -1.12002,-0.23738 -2.3025,-0.37388 -3.50195,-0.41406 z m 75.54101,0.004 c -8.89559,-0.0331 -14.16106,3.65565 -14.16992,10.04883 -0.005,3.43612 0.69911,5.36522 2.66406,7.30468 1.66865,1.647 2.73719,2.25441 9.56446,5.4375 4.2479,1.98052 5.36718,2.89066 5.36718,4.36133 10e-6,1.45072 -0.45828,2.09252 -1.91601,2.67578 -2.82582,1.13067 -8.82746,0.25319 -15.12305,-2.21094 -0.51577,-0.20187 -0.56054,0.10695 -0.56054,3.91797 v 4.13868 l 2.32031,0.71874 c 1.276,0.39557 3.03992,0.84606 3.91992,1 2.86586,0.5013 10.93659,0.15109 13.1875,-0.57226 5.48138,-1.76147 8.0918,-5.13725 8.0918,-10.46484 0,-3.12421 -0.83103,-5.36236 -2.63672,-7.10157 -1.84352,-1.77559 -3.37948,-2.68182 -7.48438,-4.41406 -6.37501,-2.69024 -7.83739,-3.81786 -7.37109,-5.67578 0.52259,-2.08214 5.2037,-2.27202 10.58984,-0.43164 1.89549,0.64766 3.53319,1.0899 3.63868,0.98437 0.34409,-0.34411 2.8911,-6.71692 2.76562,-6.91992 -0.16557,-0.2679 -3.3892,-1.41117 -5.74219,-2.03711 -1.056,-0.28091 -3.43129,-0.59786 -5.27929,-0.70312 -0.62483,-0.0356 -1.23314,-0.0544 -1.82618,-0.0566 z m 244.51172,0.0117 c -1.41203,0.009 -2.77887,0.13325 -3.93554,0.3789 -4.51941,0.95981 -7.76033,3.00521 -10.06641,6.35352 -4.14448,6.01757 -4.23749,17.31692 -0.19336,23.61914 2.08479,3.2489 5.8741,5.88426 9.83984,6.8457 2.40427,0.58296 6.73857,0.59974 9.40235,0.0352 3.30051,-0.69954 5.60693,-1.94678 7.97265,-4.3125 3.33135,-3.33133 4.70533,-6.90543 4.99219,-12.98438 0.44719,-9.48189 -3.83121,-16.67379 -11.33984,-19.0625 -1.83905,-0.58505 -4.31849,-0.88814 -6.67188,-0.87304 z m -131.6875,0.55859 0.11719,13.84766 c 0.11501,13.47976 0.13751,13.90193 0.84961,15.8457 0.84457,2.30543 3.01477,4.91421 4.87891,5.86523 0.67955,0.34668 1.99024,0.83509 2.91406,1.08399 h 0.002 c 5.12277,1.37864 11.69994,-0.18711 14.49219,-3.44922 0.58492,-0.68336 1.19364,-1.16134 1.35351,-1.0625 0.15995,0.0988 0.54599,1.12252 0.85743,2.27344 l 0.5664,2.09179 h 3.80469 3.80469 v -18.24023 -18.24024 h -4.96094 -4.95898 l -0.004,10.16016 c -0.006,11.08119 -0.25881,13.39787 -1.74024,15.92578 -2.2634,3.86219 -8.82901,4.09954 -10.81054,0.39063 -0.70783,-1.32505 -0.7283,-1.63809 -0.88477,-13.83594 l -0.1582,-12.48047 -5.0625,-0.0879 z m 188.20117,0.0156 v 18.24024 18.24023 h 4.96094 4.95899 v -18.24023 -18.24024 h -4.95899 z m 71.18555,0.002 -3.72656,11.27929 c -2.05002,6.20401 -3.90415,12.14322 -4.1211,13.19922 l -0.39453,1.91993 -0.39648,-2.29493 c -0.49164,-2.84724 -7.43431,-23.77745 -7.95313,-23.97656 -0.20783,-0.0798 -2.69719,-0.10517 -5.5332,-0.0566 l -5.15625,0.0879 7.18164,17.91992 c 7.05835,17.60875 7.17805,17.9434 6.81445,19.20117 -0.88569,3.06444 -2.42349,5.17284 -4.61914,6.33594 -1.06605,0.56485 -1.77496,0.67042 -4.24023,0.62695 l -2.96094,-0.0527 v 3.81836 3.81836 l 0.88086,0.19531 c 0.48401,0.10696 1.02309,0.2422 1.19922,0.30078 0.91748,0.30618 5.38741,0.0932 7.02734,-0.33398 4.47746,-1.16621 8.28929,-4.36004 10.28711,-8.6211 0.8309,-1.7722 8.88338,-22.99801 15.51172,-40.88867 l 0.91797,-2.47851 h -5.35937 z M 272.5,340.43945 c 2.08036,0.009 4.16111,0.80075 5.2793,2.3711 0.72564,1.01906 1.58984,3.47243 1.58984,4.51562 0,0.55399 -0.41216,0.58789 -6.88086,0.58789 h -6.8789 v -0.75976 c 0,-1.0525 0.81219,-3.25542 1.61914,-4.38868 1.11151,-1.56097 3.19112,-2.33491 5.27148,-2.32617 z m 321.23828,0.96094 c 5.0603,0.0146 7.55078,3.57019 7.55078,10.7832 0,4.58001 -1.3293,8.23937 -3.51758,9.6875 -2.44225,1.61622 -6.59572,1.28466 -8.65625,-0.68945 -3.14165,-3.00992 -3.68987,-12.60208 -0.97265,-17.00195 1.02546,-1.66043 3.29091,-2.7861 5.5957,-2.7793 z m -276.8457,12.20313 -0.14453,2.75976 c -0.12613,2.40313 -0.26659,2.93779 -1.08399,4.11719 -0.60717,0.87609 -1.55373,1.6654 -2.67578,2.23437 -2.83101,1.43558 -6.53319,1.07703 -7.81836,-0.75781 -0.32933,-0.47019 -0.52017,-1.39568 -0.51953,-2.51367 0.002,-2.45151 0.7998,-3.66276 3.12695,-4.74219 1.56294,-0.72495 2.36486,-0.86622 5.47266,-0.97265 z m -229.958986,9.91406 c 0.902808,0.26033 7.684624,4.31714 7.78125,4.6914 0.0419,0.1623 -1.684246,1.27877 -3.833985,2.48047 -2.149738,1.2017 -4.021523,2.18555 -4.160156,2.18555 -0.199748,0 -0.09593,-8.42343 0.115235,-9.35547 0.0042,-0.0186 0.03747,-0.0193 0.09766,-0.002 z m 263.369136,32.49804 c -4.73073,-0.0451 -8.78131,2.51539 -10.47265,6.79493 -1.05051,2.65806 -1.09169,8.36283 -0.0801,11.08398 1.17413,3.15829 3.25876,5.23355 6.23438,6.20508 1.64556,0.53726 7.12626,0.40706 8.98437,-0.21289 1.18639,-0.39591 1.19922,-0.41825 1.19922,-2.10547 0,-0.93846 -0.0361,-1.70539 -0.0801,-1.70313 -0.044,0.002 -0.87184,0.21691 -1.83984,0.47657 -0.968,0.26003 -2.73879,0.47429 -3.93555,0.47656 -3.36276,0.006 -5.22351,-1.17269 -6.26367,-3.96875 -2.31306,-6.21785 0.12152,-12.76044 5.02539,-13.50391 1.3551,-0.20545 2.7831,0.0383 6.16211,1.05079 0.36602,0.10968 0.69239,-0.29349 1.17187,-1.44727 l 0.66602,-1.59961 -1.25195,-0.5 c -0.68781,-0.27519 -2.24254,-0.66492 -3.45508,-0.86523 -0.69864,-0.11538 -1.38864,-0.1752 -2.06446,-0.18165 z m 221.04493,0.0859 c -2.27192,-0.0246 -2.80615,0.088 -4.47266,0.93946 -2.42944,1.24127 -3.33424,2.6974 -3.3418,5.38476 -0.003,1.07751 0.21749,2.33809 0.51758,2.9707 0.73572,1.5504 2.71893,3.13915 5.12305,4.10157 3.86846,1.54866 5.23437,2.72134 5.23437,4.49609 0,2.03456 -1.50653,3.04089 -4.54297,3.03711 -2.04899,-0.004 -4.661,-0.55117 -5.96679,-1.25 -0.71634,-0.3834 -0.72025,-0.37356 -0.625,1.62305 l 0.0957,2.00976 1.75977,0.55078 c 2.25173,0.70424 6.10247,0.73866 8.33984,0.0742 3.5283,-1.0478 5.57324,-4.29213 4.80664,-7.625 -0.60098,-2.61294 -1.52611,-3.48625 -5.93164,-5.59961 -4.08582,-1.96002 -4.97461,-2.72335 -4.97461,-4.27148 0,-2.23238 1.65685,-3.28964 4.67578,-2.98047 1.10045,0.11278 2.60603,0.41732 3.34375,0.67773 0.73773,0.26045 1.37406,0.47461 1.41602,0.47461 0.24638,0 1.13587,-2.92224 0.9707,-3.18945 -0.38555,-0.62377 -3.87209,-1.39737 -6.42773,-1.42383 z m -325.25977,0.0645 v 12.03515 12.03321 h 1.91992 1.91992 v -4.80079 -4.79882 h 1.88282 1.88281 l 2.83789,4.79101 2.83789,4.79297 2.31641,0.008 2.31836,0.008 -1.40235,-2.18946 c -0.77158,-1.20374 -2.18249,-3.39865 -3.13476,-4.8789 -0.95227,-1.48026 -1.82852,-2.85268 -1.94727,-3.04883 -0.12723,-0.21033 0.41731,-0.75144 1.32617,-1.31641 1.99663,-1.24116 2.92515,-3.05535 2.91797,-5.70703 -0.009,-3.09623 -1.67524,-5.28683 -4.75781,-6.25586 -0.6367,-0.20009 -3.35311,-0.43292 -6.03711,-0.51758 z m 158.40039,0.043 v 12.01368 l -0.002,12.01172 h 1.7539 1.75586 l 0.084,-9.51954 0.0859,-9.51953 2.03906,5.91992 c 1.12203,3.25599 2.61533,7.54698 3.31836,9.53516 l 1.27929,3.61328 1.76172,-0.0937 1.76172,-0.0957 3.4668,-9.59961 3.46484,-9.59961 0.0156,9.67969 0.0156,9.67969 h 1.92383 1.92383 l -0.084,-11.91993 -0.084,-11.91992 -2.625,-0.0918 c -2.59158,-0.0915 -2.63193,-0.0824 -3.07031,0.79883 -0.24427,0.491 -1.78953,4.67299 -3.43555,9.29297 -1.64602,4.62002 -3.07398,8.40051 -3.17187,8.40039 -0.0978,-7e-5 -1.6266,-4.14125 -3.39844,-9.20117 l -3.22266,-9.19922 -2.77734,-0.0918 z m -132.16016,0.0254 v 12 12 h 1.91993 1.91992 v -12 -12 h -1.91992 z m 14.03711,0 c -1.36692,0 -1.87695,0.11882 -1.87695,0.43554 0,0.23898 1.8,5.58441 4,11.87891 2.2,6.2945 4,11.50562 4,11.58008 0,0.0748 0.96785,0.0932 2.15039,0.041 l 2.15039,-0.0957 4.06836,-11.51953 c 2.23733,-6.336 4.07775,-11.70727 4.08985,-11.93555 0.0163,-0.30879 -0.49535,-0.39099 -1.97852,-0.32031 l -2,0.0957 -3.00781,9.11914 c -1.65366,5.016 -3.07135,9.33738 -3.15235,9.60156 -0.081,0.264 -0.35512,-0.2411 -0.60937,-1.12109 -0.25424,-0.88002 -1.69959,-5.23568 -3.21094,-9.67969 l -2.74805,-8.08007 z m 32.50586,0 -4.39062,11.7871 c -2.41544,6.48242 -4.39258,11.88246 -4.39258,12 0,0.11793 0.92483,0.2129 2.05469,0.2129 h 2.05469 l 0.54882,-1.67969 c 0.30206,-0.92402 0.82725,-2.4354 1.16797,-3.35938 l 0.6211,-1.68164 h 4.43359 4.43359 l 0.625,1.68164 c 0.34374,0.92398 0.89254,2.43536 1.21875,3.35938 l 0.5918,1.67969 h 2.15039 2.14844 l -0.42188,-1.03907 c -0.23175,-0.57199 -2.25576,-5.97199 -4.49804,-12 l -4.07813,-10.96093 h -2.13281 z m 46.40625,0 c -1.13827,-10e-6 -2.06836,0.12622 -2.06836,0.27929 0,0.15326 1.72596,3.50073 3.83594,7.43945 l 3.83594,7.16211 0.004,4.5586 0.004,4.56055 h 2.08008 2.08008 v -4.75 -4.75 l 3.67187,-6.72461 c 2.01982,-3.69854 3.76672,-6.9678 3.88086,-7.26563 0.18444,-0.47981 -0.0337,-0.52997 -1.94336,-0.44531 l -2.15039,0.0957 -2.74023,5.24609 c -2.51047,4.80552 -2.7787,5.19565 -3.1875,4.64063 -0.24544,-0.3332 -1.52349,-2.73017 -2.83985,-5.32617 l -2.39257,-4.7207 z m 123.05078,0 v 1.75976 1.75977 h 3.51954 3.52148 v 10.24023 10.24024 h 1.91992 1.91992 v -10.24024 -10.24023 h 3.51954 3.51953 v -1.75977 -1.75976 h -8.95899 z m 26.56055,0 v 12 12 h 6.72071 6.71874 v -1.75977 -1.75977 h -4.79882 -4.80078 v -3.67968 -3.67969 h 4.48046 4.48047 v -1.60156 -1.59961 h -4.48047 -4.48046 v -3.19922 -3.20117 h 4.80078 4.79882 v -1.75977 -1.75976 h -6.71874 z m 27.63477,0.0703 -4.11524,0.0898 -0.084,11.91992 -0.084,11.91993 h 2.08399 2.08398 v -4.80079 -4.79882 l 1.83985,0.008 1.83984,0.008 2.83789,4.79102 2.83789,4.79297 h 2.20313 c 1.21118,0 2.20117,-0.0664 2.20117,-0.14844 0,-0.082 -1.44753,-2.42322 -3.2168,-5.20117 -2.84375,-4.46487 -3.15162,-5.08839 -2.66406,-5.3711 2.75153,-1.59639 4.16583,-4.17152 3.86914,-7.04687 -0.47441,-4.59644 -3.75359,-6.33408 -11.63281,-6.16211 z m -321.875,0.0898 -0.084,11.91992 -0.084,11.91993 h 2.08398 2.08399 v -4.44922 -4.44922 l 2.96094,-0.11133 c 5.03129,-0.18849 7.69833,-2.03242 8.60156,-5.94922 0.79832,-3.46193 -0.68351,-6.55905 -3.84766,-8.03711 -1.69196,-0.7903 -2.07662,-0.83697 -6.7539,-0.83984 z m 225.27929,0 -4.38281,11.67969 c -2.41122,6.42402 -4.39283,11.78802 -4.40039,11.91992 -0.009,0.13191 0.90444,0.24024 2.0293,0.24024 h 2.04492 l 1.20117,-3.36915 1.19922,-3.36718 4.49024,0.0879 4.49023,0.0879 1.14453,3.27929 1.14453,3.27735 2.14844,0.002 2.15039,0.002 -0.63477,-1.67969 c -0.34824,-0.92402 -2.347,-6.2879 -4.44335,-11.91992 l -3.8125,-10.24024 h -2.1836 z m 18.56055,0 -0.0957,1.67969 -0.0977,1.67969 h 3.53711 3.53711 v 10.24023 10.24024 h 2.08008 2.08008 V 409.99413 399.7539 h 3.53515 3.53711 l -0.0957,-1.67969 -0.0977,-1.67969 h -8.95898 z m -239.83984,3.35938 h 2.08984 c 3.4238,0 5.17912,1.10253 5.49414,3.45117 0.23484,1.75083 -0.5727,3.32987 -2.07422,4.05664 -0.65407,0.31661 -2.16161,0.64946 -3.34961,0.73828 l -2.16015,0.16016 v -4.20313 z m 25.27929,0 2,0.002 c 4.02429,0.004 5.68165,1.09429 5.68165,3.74219 -10e-6,1.88776 -0.43136,2.59175 -2.02735,3.3164 -0.87908,0.39927 -2.07093,0.6095 -3.49414,0.61328 l -2.16016,0.006 v -3.83984 z m 292.48047,0 2.16016,0.008 c 2.40998,0.008 4.60312,0.79884 5.17383,1.86523 0.48831,0.9128 0.42981,2.79795 -0.1211,3.86328 -0.28168,0.54475 -0.98545,1.11038 -1.76757,1.42383 -0.73143,0.29222 -2.20491,0.51953 -3.3711,0.51953 h -2.07422 v -3.83984 z m -94.30273,0.34765 1.35156,4.06641 c 0.74291,2.23665 1.50924,4.46326 1.70313,4.94726 l 0.35156,0.87891 h -3.37695 c -2.57802,0 -3.34146,-0.0954 -3.21485,-0.40039 0.0911,-0.22001 0.84557,-2.44466 1.67578,-4.94531 z m -127.25195,0.61328 c 0.13668,-0.4015 3.31445,8.2518 3.31445,9.02539 0,0.14022 -1.43922,0.25391 -3.19922,0.25391 -1.76,0 -3.20117,-0.0476 -3.20117,-0.10547 0,-0.087 0.69656,-2.15547 3.08594,-9.17383 z M 64.544922,401.1953 c -2.886311,-0.0535 -5.788856,1.44837 -7.28125,4.53125 -1.974289,4.07834 0.191905,9.3376 4.476562,10.86914 2.920264,1.04387 5.918161,0.32989 8.199219,-1.95117 2.385131,-2.38515 3.091396,-5.79775 1.791016,-8.65039 -1.430015,-3.13701 -4.299236,-4.74537 -7.185547,-4.79883 z m -0.04102,4.01758 c 1.9844,-0.0479 3.664063,1.55753 3.664063,4.00195 0,1.26017 -0.163528,1.64791 -1.087891,2.57227 -0.910783,0.91075 -1.315206,1.08556 -2.480469,1.07422 -0.7656,-0.007 -1.767659,-0.21622 -2.228515,-0.4668 -0.844373,-0.45883 -1.882813,-2.21097 -1.882813,-3.17773 0,-1.10774 0.967268,-2.75532 1.980469,-3.37305 0.678194,-0.41349 1.37369,-0.61488 2.035156,-0.63086 z m 121.320318,0.62109 c 1.21444,0 1.62054,0.17328 2.51758,1.07032 0.58802,0.58805 1.1658,1.45801 1.28515,1.93359 0.31642,1.26074 -0.50501,3.1069 -1.75781,3.95117 v 0.002 c -1.37139,0.92322 -2.83312,0.9207 -4.21289,-0.008 -3.12695,-2.10421 -1.61591,-6.94922 2.16797,-6.94922 z m -39.46484,15.67188 c -3.52694,-0.0203 -6.61096,2.19125 -7.73243,5.82617 l -0.56054,1.81641 -5.74805,-3.32617 -5.75,-3.32813 -0.0957,1.58984 -0.0977,1.58985 -1.50391,0.004 c -0.8268,0.002 -20.0792,0.43289 -42.783203,0.95704 -40.449245,0.93381 -46.179626,1.12731 -46.916016,0.63476 0.640699,3.39919 -0.216461,4.01584 1.126987,3.84961 0.544141,0.002 19.565531,0.43289 42.269531,0.95703 22.704001,0.52415 42.756551,0.95349 44.560551,0.95508 l 3.27929,0.004 v 1.59961 c 0,0.87998 0.0615,1.59961 0.13672,1.59961 0.0752,0 2.72625,-1.49702 5.89063,-3.32813 l 5.7539,-3.33008 0.2168,1.1543 c 0.62772,3.34605 3.04253,5.70664 6.72266,6.57226 0.90375,0.2126 3.00099,-0.0983 4.32031,-0.64062 1.43844,-0.59135 3.07066,-2.16127 3.9375,-3.78711 0.96175,-1.80386 0.95292,-5.24663 -0.0176,-7.08594 -0.88193,-1.67142 -2.9052,-3.41985 -4.51562,-3.90234 -0.8424,-0.25238 -1.68024,-0.37618 -2.49414,-0.38086 z m -0.008,4.16797 c 1.34836,0 1.70853,0.14991 2.64844,1.08984 0.91244,0.91242 1.08789,1.31733 1.08789,2.51563 0,1.60883 -0.76491,2.83258 -2.25195,3.60156 -1.2827,0.66342 -2.27799,0.59132 -3.53516,-0.25586 -1.84087,-1.24055 -2.38043,-3.15856 -1.41406,-5.02734 0.70971,-1.37243 1.70226,-1.92383 3.46484,-1.92383 z"
       transform="scale(0.26458333)"
       sodipodi:nodetypes="csssssccccscccssccccccccssscccccssscsscccccccssssscscsssssssccsssscccscccssssccccccsssccccccscssscsscccccccccccccccsccccscccccccsccccsscccsscccccccccscccssssccccccccccccsscccccssccccccccccccccccccccccsccssccsccccccccccccscccccsssccssssscccccccccccssssssssssssccssssscccccccccccccsccscccsscccssscccssssssscccssssssssssscccsscccccsssssssssssccssssssssssssssssssssssccssccsscccccccccsscccccccccccccccsccsccscsccccccssccccsssscssscssssccccsscscssssssssscsssccccsscccsscsscsscscccsssssssscccccccccccccccssscscccccccccccccscccccccccssscccccccccccccsscscccsccccsccsccssccccccccccccccccsscccccccccccccsccsccccccccccccccccccccccccccccccccccccccccccscccccccccccssscssccccccccsscccccsccccccccccccccccccccccccccccccccsssccccccscsccccccscsccccccsscccssssssssssssssccscssssccsssccccsccsccssccsscccssccsccccccssscssscssscsss" />
    <path
       style="font-variation-settings:normal;vector-effect:none;fill:#ec1e0e;fill-opacity:1;stroke-width:0.0846667;stroke-linecap:butt;stroke-linejoin:miter;stroke-miterlimit:4;stroke-dasharray:none;stroke-dashoffset:0;stroke-opacity:1;stop-color:#000000"
       d="m 9.2469982,114.38417 c -0.2206013,0.50829 -0.720339,0.99399 -1.19088,1.15974 -1.001919,0.35294 -2.079057,-0.066 -2.572095,-1.00042 -0.243426,-0.46134 -0.258755,-1.39679 -0.03003,-1.8324 0.409198,-0.77931 1.1699063,-1.07341 1.908289,-1.14542 0.484967,-0.0473 0.9947694,0.14455 1.375098,0.49596 0.094868,0.0878 0.241448,0.30354 0.241448,0.30354 0.132797,0.16695 0.2489377,0.33783 0.298283,0.53637 0.1192312,0.47972 0.1666869,1.02918 -0.030113,1.48263 z m -1.390809,0.10518 c 0.581241,-0.35438 0.675962,-1.1354 0.19592,-1.61544 -0.823714,-0.82372 -2.187893,0.1662 -1.653403,1.19979 0.162571,0.31438 0.590726,0.58409 0.927223,0.58409 0.1397,0 0.378317,-0.0758 0.53026,-0.16844 z M 32.016795,83.757589 31.811554,83.481169 c -0.889747,-1.19833 -0.218134,-2.97667 1.238371,-3.27904 1.05917,-0.21989 2.091989,0.40418 2.428395,1.46732 0.134095,0.87766 0.05406,1.68775 -0.526619,2.13515 -0.775055,0.59717 -2.248615,0.65037 -2.934906,-0.047 -2e-6,0 0,-1e-5 0,-1e-5 z m 2.093983,-0.72495 c 0.343747,-0.28924 0.478858,-0.70992 0.351729,-1.09512 -0.277652,-0.8413 -1.381268,-0.98961 -1.868124,-0.25106 -0.30668,0.46522 -0.146479,1.17329 0.323107,1.42809 0.374547,0.20322 0.897053,0.16736 1.193288,-0.0819 z"
       id="path26-3"
       sodipodi:nodetypes="asssacsaasssssasscaaassssss" />
  </g>
</svg>
