<?xml version="1.0" encoding="UTF-8"?><svg id="a" xmlns="http://www.w3.org/2000/svg" viewBox="0 0 345.3 75"><defs><style>.b{fill:#282f39;stroke:#282f39;stroke-miterlimit:10;stroke-width:.4px;}.c{fill:#88b3ff;}</style></defs><g><path class="b" d="M148.7,17.91l-11.41,40.09h-7.08l-10.91-32.3-10.98,32.3h-7.15l-11.27-40.09h6.65l8.45,33.4,10.98-33.4h6.86l11.05,33.33,8.52-33.33h6.28Z"/><rect class="b" x="156.41" y="17.9" width="6.57" height="40.09"/><path class="b" d="M202.77,22.17c2.84,2.92,4.26,7.13,4.26,12.63v23.19h-6.57v-22.62c0-3.89-1.01-6.88-3.03-8.97-2.02-2.08-4.77-3.13-8.23-3.13s-6.5,1.15-8.67,3.45c-2.17,2.3-3.25,5.66-3.25,10.07v21.2h-6.57V17.9h6.57v9.78c1.01-3.18,2.81-5.62,5.38-7.33,2.58-1.71,5.55-2.45,8.92-2.45,4.62,0,8.35,1.35,11.2,4.27Z"/><path class="b" d="M242.74,20.79c2.67,1.9,4.54,4.43,5.6,7.61V3h6.58V57.99h-6.58v-10.46c-1.06,3.18-2.92,5.72-5.6,7.61-2.67,1.9-5.94,2.85-9.79,2.85-3.52,0-6.64-.8-9.39-2.42-2.75-1.61-4.9-3.92-6.47-6.94-1.56-3.01-2.35-6.56-2.35-10.64s.78-7.64,2.35-10.67c1.56-3.04,3.72-5.36,6.47-6.97,2.75-1.61,5.88-2.45,9.39-2.45,3.85,0,7.11,.99,9.79,2.88Zm-17.63,6.72c-2.43,2.54-3.65,6.04-3.65,10.49s1.22,7.96,3.65,10.49c2.43,2.54,5.67,3.81,9.72,3.81,2.6,0,4.92-.59,6.97-1.78,2.05-1.19,3.65-2.86,4.81-5.02,1.15-2.16,1.73-4.66,1.73-7.51s-.58-5.36-1.73-7.54c-1.16-2.18-2.76-3.85-4.81-5.01-2.05-1.16-4.37-1.75-6.97-1.75-4.05,0-7.29,1.27-9.72,3.81Z"/><path class="b" d="M340.84,22.18c2.84,2.92,4.26,7.13,4.26,12.63v23.19h-6.57v-22.62c0-3.89-1.01-6.88-3.03-8.97-2.02-2.08-4.77-3.13-8.24-3.13s-6.5,1.15-8.67,3.45c-2.16,2.3-3.25,5.66-3.25,10.07v21.2h-6.57V17.91h6.57v9.78c1.02-3.18,2.81-5.62,5.38-7.33,2.57-1.71,5.55-2.45,8.93-2.45,4.62,0,8.35,1.35,11.19,4.27Z"/><path class="b" d="M301.06,35.8c0-3.27-.76-6.26-2.27-8.96-1.52-2.7-3.71-4.86-6.58-6.48-2.86-1.61-6.22-2.45-10.07-2.45s-7.17,.84-10.11,2.45c-2.94,1.62-5.24,3.94-6.9,6.97-1.66,3.03-2.49,6.59-2.49,10.67s.83,7.62,2.49,10.64c1.66,3.01,3.96,5.33,6.9,6.94,2.94,1.62,6.31,2.42,10.11,2.42,3.33,0,6.31-.59,8.96-1.78,2.65-1.19,4.8-2.85,6.47-4.98,1.66-2.13,2.73-4.55,3.22-7.25h-7.01c-.48,2.65-1.8,4.78-3.94,6.37-2.15,1.59-4.8,2.38-7.98,2.38-3.51,0-6.49-1.11-8.92-3.34-2.43-2.23-3.72-5.57-3.87-10.03h31.71c.19-1,.29-2.18,.29-3.56Zm-28.03-9.28c2.46-2.21,5.49-3.31,9.1-3.31,2.26,0,4.36,.47,6.28,1.42,1.93,.95,3.44,2.39,4.55,4.34,.77,1.34,1.12,2.99,1.29,4.79h-24.9c.52-3.06,1.73-5.49,3.68-7.24Z"/><ellipse class="b" cx="159.7" cy="6.28" rx="3.29" ry="3.28"/></g><g><path class="c" d="M71.3,21.55l-7.43,12.87h-.01l-3.56,6.16h-.01l-1.25,2.2-4.36,7.53c-.83,1.46-2.72,1.96-4.2,1.12-1.46-.83-1.96-2.71-1.15-4.17,.01,0,.01-.01,.03-.03s.01-.01,.01-.03l3.82-6.62,.51-.88,3.05-5.28,2.02-3.53s.03-.03,.04-.06c.01-.03,.03-.06,.06-.09,.19-.36,.37-.71,.54-1.09,.15-.37,.27-.74,.36-1.13,.09-.37,.18-.76,.22-1.13,.09-.77,.09-1.53,0-2.28-.04-.19-.06-.37-.1-.57-.01-.18-.06-.36-.12-.55-.01-.1-.06-.24-.09-.34-.01-.09-.03-.15-.07-.24h0c-.04-.15-.1-.28-.15-.43-.18-.49-.4-.97-.67-1.41-.13-.22-.27-.43-.4-.64-.03-.03-.04-.06-.07-.07-.15-.21-.31-.42-.48-.62h0c-.65-.79-1.46-1.46-2.4-1.99-.92-.54-1.92-.89-2.93-1.07-.57-.12-1.12-.16-1.68-.16-3.18,0-6.28,1.65-7.99,4.61l-7.38,12.8h-.01l-3.56,6.16-1.26,2.2-4.36,7.53c-.83,1.46-2.72,1.96-4.2,1.12-1.46-.83-1.96-2.71-1.15-4.17,.01,0,.01-.01,.03-.03l.03-.03,3.81-6.62h-.01l.52-.88,3.04-5.28h.01l2.02-3.53s.01-.03,.03-.06c.03-.03,.03-.06,.06-.09,1.28-2.29,1.49-4.9,.79-7.22-.09-.28-.19-.57-.31-.85-.16-.37-.34-.74-.55-1.09-.27-.49-.6-.92-.95-1.35h-.01c-.65-.79-1.46-1.46-2.38-1.99-.94-.54-1.93-.89-2.95-1.07-.55-.12-1.12-.16-1.67-.16-3.2,0-6.29,1.65-7.99,4.61l-6.44,11.13c-.06,.1-.1,.21-.18,.31-.55,.82-1.49,1.35-2.54,1.35H0C1.56,15.15,17.69,0,37.36,0c15.01,0,27.96,8.81,33.94,21.55Z"/><path class="c" d="M74.86,37.5c0,20.71-16.78,37.5-37.5,37.5S1.56,59.85,0,40.58H8.82c1.01,0,1.99-.49,2.57-1.41h.01l.15-.28,.04-.06,2.54-4.4,1.26-2.2,4.36-7.53c.83-1.46,2.72-1.96,4.2-1.12,1.46,.83,1.96,2.71,1.13,4.17,0,0,0,.01-.01,.03l-.03,.03-3.81,6.62h.01l-.52,.88-3.04,5.28h-.01l-2.02,3.53s-.01,.03-.03,.06c-.03,.03-.03,.06-.06,.09-1.28,2.28-1.49,4.85-.79,7.17,.09,.28,.19,.58,.3,.85,.01,.03,.03,.06,.03,.09,.07,.18,.15,.34,.25,.52,.09,.18,.18,.34,.28,.52,.28,.49,.6,.92,.95,1.35h.01c.65,.79,1.46,1.46,2.38,1.99,.94,.54,1.93,.89,2.95,1.07,.55,.12,1.12,.16,1.67,.16,3.18,0,6.29-1.65,7.99-4.61l7.4-12.8h.01l3.54-6.16h.01l5.61-9.73c.85-1.46,2.74-1.96,4.21-1.12,1.46,.83,1.95,2.71,1.13,4.17-.01,0-.01,.01-.01,.03l-.03,.03-3.81,6.62-.52,.88-3.04,5.28h-.01l-2.02,3.53s-.01,.03-.03,.06c-.03,.03-.03,.06-.06,.09-.1,.19-.19,.36-.28,.54-.18,.37-.31,.74-.45,1.12-.12,.37-.21,.73-.3,1.12l-.04,.31c-.01,.12-.04,.27-.06,.39v.21c-.06,.45-.06,.91-.03,1.37,.01,.13,.01,.28,.03,.43v.04c.03,.21,.06,.4,.09,.61,.03,.15,.06,.28,.1,.43,0,.06,.01,.12,.04,.18,.03,.13,.07,.3,.12,.45,.36,1.21,.97,2.34,1.82,3.32h0c.65,.79,1.46,1.46,2.38,1.99,.94,.54,1.93,.89,2.95,1.07,.55,.12,1.12,.16,1.67,.16,3.18,0,6.29-1.65,7.99-4.61l7.4-12.8h.01l3.54-6.16h.01l2.98-5.15c.6,2.65,.91,5.4,.91,8.23Z"/></g></svg>